:SAMPLES-PER-SECOND 30
:FULLY-SPECIFIED
:DEGREES
1295
root  4.33499 27.4631 3.05776 68.8546 85.1502 134.893
RightUpLeg  22.4496 9.99589 -35.6333
RightLeg  88.2169 0.297793 -1.06321
RightFoot  -19.5803 1.08805 15.4065
RightToes  3.49245e-010 0 -3.6325e-017
Spine  128.632 2.39425 -3.86515
Spine1  -10.0287 -6.18863 -5.2923
HEad  -32.8339 1.49271 -2.76907
LeftShoulder1  -0.220329 -5.41219 12.4995
LeftArm  -64.8716 -30.2444 -14.9882
LeftForeArm  25.0813 -76.463 -57.6912
LeftHand  -0.342195 -0.331051 7.03292
RightShoulder  0.00536193 1.43922 -9.61357
RightArm  -55.9768 10.7842 8.88959
RightForeArm  20.9773 77.59 83.4222
RightHand  -0.852844 5.19311 -9.63205
LeftUpLeg  15.5059 3.464 8.26397
LeftLeg  79.4601 -0.514299 -1.58346
LeftFoot  -26.4916 0.16997 0.0821377
LeftToes  -2.21735e-009 9.83027e-011 -4.04511e-011
1296
root  4.8538 28.0212 3.01147 129.99 82.2814 -164.021
RightUpLeg  23.0812 5.679 -36.9076
RightLeg  89.1712 0.317043 -1.5735
RightFoot  -4.28078 -0.555509 8.78668
RightToes  3.49245e-010 0 -3.6325e-017
Spine  128.579 -3.21058 -3.302
Spine1  -10.0201 -7.87791 -5.81283
HEad  -31.6612 1.69312 -0.926493
LeftShoulder1  -0.220428 -5.46965 12.473
LeftArm  -63.8617 -30.946 -14.4806
LeftForeArm  25.8913 -76.5348 -58.0598
LeftHand  -0.322041 -0.150781 6.81726
RightShoulder  0.0434251 1.26833 -8.68925
RightArm  -54.4958 9.38232 8.38373
RightForeArm  21.7974 77.611 85.6423
RightHand  -0.89501 5.29063 -10.0109
LeftUpLeg  15.5844 -2.25849 5.73234
LeftLeg  78.5906 -0.56656 -1.70043
LeftFoot  -26.9136 0.176796 0.108234
LeftToes  -2.21735e-009 9.83027e-011 -4.04511e-011
1297
root  5.35285 28.4675 3.0303 139.31 77.8682 -154.297
RightUpLeg  22.6107 2.337 -38.5623
RightLeg  89.1683 0.268721 2.20102
RightFoot  2.02573 -0.366004 2.87806
RightToes  3.49245e-010 0 -3.6325e-017
Spine  128.839 -6.50485 -2.81702
Spine1  -9.23415 -8.79514 -5.69845
HEad  -32.455 2.0225 0.100336
LeftShoulder1  -0.182902 -5.0813 12.1003
LeftArm  -64.559 -31.798 -13.2128
LeftForeArm  26.5037 -76.6494 -58.974
LeftHand  -0.315706 -0.212633 6.61746
RightShoulder  0.027723 0.907512 -9.00103
RightArm  -54.6831 8.09088 7.71163
RightForeArm  21.7667 77.6055 87.0576
RightHand  -0.889951 4.76067 -10.4302
LeftUpLeg  16.6155 -6.05278 4.48409
LeftLeg  77.7029 -0.729955 -2.45405
LeftFoot  -27.2378 0.225572 0.442768
LeftToes  -2.21735e-009 9.83027e-011 -4.04511e-011
1298
root  5.7073 28.7189 3.06558 141.93 73.4276 -148.601
RightUpLeg  24.272 -0.295518 -40.6833
RightLeg  87.5044 0.328448 6.5868
RightFoot  -0.558947 -0.404454 4.31439
RightToes  3.49245e-010 0 -3.6325e-017
Spine  131.776 -10.4799 -2.8043
Spine1  -8.73918 -10.2728 -5.51039
HEad  -32.5834 2.47661 1.38435
LeftShoulder1  -0.174965 -4.92194 12.0324
LeftArm  -65.1402 -31.982 -12.4969
LeftForeArm  27.4191 -76.7437 -59.5763
LeftHand  -0.303557 -0.693819 5.91073
RightShoulder  0.0179419 1.39817 -9.3102
RightArm  -55.1494 6.58566 7.28302
RightForeArm  22.6672 77.6117 88.2181
RightHand  -0.806823 4.51711 -9.72217
LeftUpLeg  20.0092 -9.99391 3.05897
LeftLeg  76.9949 -0.896591 -3.15539
LeftFoot  -27.4147 0.268252 0.731089
LeftToes  -2.21735e-009 9.83027e-011 -4.04511e-011
1299
root  6.00899 28.8239 3.13909 143.961 70.5295 -142.416
RightUpLeg  26.0015 -3.0484 -41.724
RightLeg  84.6321 0.534071 4.31316
RightFoot  -2.75781 -0.487219 6.15447
RightToes  3.49245e-010 0 -3.6325e-017
Spine  135.705 -13.4736 -2.89832
Spine1  -8.10207 -10.3767 -6.12419
HEad  -32.74 2.25757 2.68775
LeftShoulder1  -0.230689 -5.24387 12.6862
LeftArm  -65.9238 -32.2658 -12.6479
LeftForeArm  27.6522 -76.7356 -59.3759
LeftHand  -0.29352 -1.09938 5.38983
RightShoulder  0.0137152 1.20909 -9.39157
RightArm  -55.9705 5.73563 6.89459
RightForeArm  20.7415 77.5898 87.1588
RightHand  -0.882467 5.23442 -9.92229
LeftUpLeg  24.2825 -13.2583 3.14938
LeftLeg  76.651 -1.09236 -4.03818
LeftFoot  -27.7123 0.341849 1.21698
LeftToes  -2.21735e-009 9.83027e-011 -4.04511e-011
1300
root  6.20982 28.6085 3.3753 141.454 69.1017 -138.664
RightUpLeg  28.1972 -3.45438 -41.645
RightLeg  80.8058 0.667605 3.02611
RightFoot  -4.39898 -0.379485 5.88042
RightToes  3.49245e-010 0 -3.6325e-017
Spine  141.055 -13.7753 -3.28147
Spine1  -6.9409 -9.61375 -5.01947
HEad  -32.9135 1.758 3.71508
LeftShoulder1  -0.257402 -5.14181 13.05
LeftArm  -66.7682 -32.8332 -12.6464
LeftForeArm  26.5981 -76.6705 -59.1635
LeftHand  -0.309985 -0.589751 6.11188
RightShoulder  -0.0250087 1.32094 -10.3347
RightArm  -56.8699 4.57615 6.95618
RightForeArm  18.9384 77.5655 86.1201
RightHand  -0.889267 4.97481 -10.2264
LeftUpLeg  30.4097 -15.414 3.11737
LeftLeg  76.7602 -1.22854 -4.77542
LeftFoot  -28.0179 0.392445 1.52692
LeftToes  -2.21735e-009 9.83027e-011 -4.04511e-011
1301
root  6.46529 28.3251 3.72583 136.243 68.7893 -140.005
RightUpLeg  28.2279 -3.19711 -41.0932
RightLeg  76.1074 0.93481 3.12569
RightFoot  -7.27272 -0.316302 7.39557
RightToes  3.49245e-010 0 -3.6325e-017
Spine  144.539 -12.4474 -3.67411
Spine1  -6.03482 -8.66425 -4.28543
HEad  -32.7207 1.36668 5.43168
LeftShoulder1  -0.378891 -5.6306 14.4228
LeftArm  -67.6673 -33.0424 -13.0519
LeftForeArm  25.1481 -76.4719 -57.7473
LeftHand  -0.357146 -0.629332 6.99965
RightShoulder  -0.0404316 1.16392 -10.7318
RightArm  -57.6209 3.23748 7.19831
RightForeArm  18.076 77.5515 84.9476
RightHand  -0.804724 5.09463 -9.19004
LeftUpLeg  34.2596 -15.7973 2.75161
LeftLeg  77.1164 -1.29489 -5.28787
LeftFoot  -28.1894 0.411754 1.63473
LeftToes  -2.21735e-009 9.83027e-011 -4.04511e-011
1302
root  6.87681 28.196 4.06167 131.623 70.2826 -145.157
RightUpLeg  24.505 -3.31022 -39.0899
RightLeg  71.1652 1.42776 3.77663
RightFoot  -8.49263 -0.238066 7.22455
RightToes  3.49245e-010 0 -3.6325e-017
Spine  144.811 -8.70403 -3.54819
Spine1  -5.46791 -6.93597 -3.95608
HEad  -33.368 0.801416 6.69298
LeftShoulder1  -0.349324 -5.06366 14.3257
LeftArm  -68.4684 -34.5268 -12.7176
LeftForeArm  25.3653 -76.5114 -58.0516
LeftHand  -0.371541 -0.522505 7.39779
RightShoulder  -0.0526202 1.0307 -11.0864
RightArm  -58.4046 1.62933 7.16893
RightForeArm  19.3794 77.5715 86.7372
RightHand  -0.830729 5.10077 -9.47285
LeftUpLeg  34.2637 -13.8362 4.20319
LeftLeg  77.3576 -1.32706 -5.59567
LeftFoot  -28.4279 0.398805 1.51359
LeftToes  -2.21735e-009 9.83027e-011 -4.04511e-011
1303
root  7.33995 27.7799 4.54107 121.802 70.6699 -154.53
RightUpLeg  22.456 -1.22928 -37.5069
RightLeg  66.6407 1.98188 4.41193
RightFoot  -10.1322 -0.143941 7.23234
RightToes  3.49245e-010 0 -3.6325e-017
Spine  145.797 -5.56136 -3.32072
Spine1  -4.69334 -6.27621 -2.83217
HEad  -34.1044 0.00912658 7.2857
LeftShoulder1  -0.286771 -4.59531 13.7185
LeftArm  -69.3836 -35.9343 -12.5308
LeftForeArm  26.4241 -76.651 -59.0255
LeftHand  -0.367651 -0.547371 7.29557
RightShoulder  -0.0973012 0.830211 -12.3275
RightArm  -59.2843 -0.986775 7.5847
RightForeArm  23.6806 77.5906 90.7545
RightHand  -0.733083 5.39158 -8.18483
LeftUpLeg  34.9212 -11.7876 4.31881
LeftLeg  78.4309 -1.28542 -6.00174
LeftFoot  -28.9257 0.41634 1.56628
LeftToes  -2.21735e-009 9.83027e-011 -4.04511e-011
1304
root  7.85385 26.9181 5.26209 103.821 71.8206 -166.996
RightUpLeg  24.652 6.13114 -33.5394
RightLeg  63.424 1.77388 3.27794
RightFoot  -12.2838 -0.0229061 7.45782
RightToes  3.49245e-010 0 -3.6325e-017
Spine  151.175 0.0520052 -2.8723
Spine1  -4.09697 -4.77625 -1.38914
HEad  -34.1711 -0.994337 8.10377
LeftShoulder1  -0.260877 -4.39677 13.4525
LeftArm  -69.5282 -36.5619 -12.6236
LeftForeArm  27.1748 -76.7762 -60.0612
LeftHand  -0.37509 -0.76378 7.19862
RightShoulder  -0.129187 0.889774 -13.137
RightArm  -59.528 -3.53919 7.42579
RightForeArm  27.4771 77.474 96.8598
RightHand  -0.84151 5.26208 -9.45587
LeftUpLeg  40.9193 -9.0525 4.82204
LeftLeg  79.5538 -1.18302 -6.08994
LeftFoot  -29.3554 0.315327 0.875075
LeftToes  -2.21735e-009 9.83027e-011 -4.04511e-011
1305
root  8.51183 25.9973 5.97331 92.4661 68.4881 -175.816
RightUpLeg  27.0397 10.4219 -33.7415
RightLeg  61.0046 1.62186 2.6487
RightFoot  -12.512 -0.0154617 7.33132
RightToes  3.49245e-010 0 -3.6325e-017
Spine  154.075 -0.0377754 -2.88484
Spine1  -4.09085 -6.82996 -0.17279
HEad  -34.4031 -2.16307 8.75271
LeftShoulder1  -0.232684 -4.91612 12.8194
LeftArm  -69.4304 -36.6661 -12.865
LeftForeArm  28.523 -76.9775 -61.8274
LeftHand  -0.390836 -0.529723 7.76671
RightShoulder  -0.147319 0.981791 -13.5268
RightArm  -59.4812 -6.05348 6.28176
RightForeArm  31.0851 77.3081 101.323
RightHand  -0.814411 5.54299 -8.93913
LeftUpLeg  42.4262 -7.5211 3.34552
LeftLeg  82.2414 -0.774799 -5.03251
LeftFoot  -30.0593 0.206338 0.149917
LeftToes  -2.21735e-009 9.83027e-011 -4.04511e-011
1306
root  9.22837 25.3822 6.59207 86.8872 66.7089 176.159
RightUpLeg  24.5329 12.6857 -32.9277
RightLeg  60.9861 1.39343 2.1968
RightFoot  -8.17147 -0.255596 7.78882
RightToes  3.49245e-010 0 -3.6325e-017
Spine  153.271 1.33442 -2.96024
Spine1  -4.73015 -7.28442 0.173478
HEad  -34.8181 -3.41015 9.95834
LeftShoulder1  -0.271294 -5.20502 13.2308
LeftArm  -69.6289 -36.2569 -13.026
LeftForeArm  29.3695 -77.1257 -63.3617
LeftHand  -0.407667 -0.653197 7.94675
RightShoulder  -0.167777 1.0751 -13.9644
RightArm  -59.7269 -8.33472 6.05887
RightForeArm  34.1679 77.1074 105.052
RightHand  -0.800299 5.36914 -8.92272
LeftUpLeg  39.6204 -5.34779 4.96494
LeftLeg  84.5973 -0.532966 -4.63842
LeftFoot  -31.15 0.0922415 -0.535899
LeftToes  -2.21735e-009 9.83027e-011 -4.04511e-011
